<?xml version="1.0" encoding="utf-8"?><!DOCTYPE svg PUBLIC "-//W3C//DTD SVG 1.1//EN" "http://www.w3.org/Graphics/SVG/1.1/DTD/svg11.dtd"><svg version="1.1" id="Contours" xmlns="http://www.w3.org/2000/svg" xmlns:xlink="http://www.w3.org/1999/xlink" x="0px" y="0px" width="1917.150391px" height="1917.150391px" viewBox="0.000000 -0.000004 1917.150391 196.795715" enable-background="new 0 0 1917.150391 1917.150391" xml:space="preserve" stroke="black" fill="none" stroke-linecap='round' stroke-linejoin='round'><path class="selected"  fill="#000000" opacity="1.000000" stroke="none" 
 	d="
M1878.894107 108.309253 C1865.538302 102.022546 1849.713603 100.299068 1835.860670 105.397739 C1822.007737 110.496411 1810.645933 122.932576 1808.563886 137.546449 C1808.060478 141.079864 1808.059970 144.757998 1806.670788 148.045643 C1805.281606 151.333288 1801.924729 154.183461 1798.421964 153.498572 C1793.648910 152.565305 1792.285984 146.492026 1791.943029 141.640695 C1790.936509 127.402807 1789.972094 113.119619 1790.734905 98.866597 C1791.045749 93.058506 1793.815855 85.404197 1799.572467 86.236042 C1804.032464 86.880523 1805.814580 92.420813 1805.724381 96.926230 C1805.634181 101.431648 1804.775622 106.419851 1807.438492 110.055239 C1824.932204 89.100421 1857.503338 82.556101 1881.733295 95.127635 C1887.681921 98.214036 1893.081398 102.271040 1898.129404 106.678949 C1908.755626 115.957744 1918.543269 128.675897 1916.986569 142.696929 C1916.523068 146.871652 1914.648679 151.350926 1910.769867 152.962744 C1906.891055 154.574562 1901.386611 151.150374 1902.507020 147.102186 C1904.703671 139.165395 1902.559388 130.414216 1897.915210 123.613518 C1893.271032 116.812819 1886.345087 111.816501 1878.894107 108.309252 z"/><path class="selected"  fill="#000000" opacity="1.000000" stroke="none" 
 	d="
M1012.753158 52.324249 C1004.709073 52.501171 1002.675192 63.505581 1003.169592 71.536408 C1004.537930 93.763113 1005.906268 115.989817 1007.274605 138.216522 C1008.143832 152.335869 1009.269291 167.232315 1017.271679 178.897361 C1013.688632 181.846809 1007.925033 180.239707 1004.897882 176.722062 C1001.870730 173.204417 1000.886827 168.418118 1000.066053 163.850427 C994.134658 130.841625 991.162490 97.301656 991.196839 63.764195 C991.201162 59.543146 989.578713 53.725351 985.398669 54.312301 C969.089506 56.602402 952.562068 57.335437 936.114201 56.498196 C932.968296 56.338061 929.561296 56.013193 927.238337 53.885702 C924.915377 51.758211 924.760548 47.181535 927.660681 45.952068 C928.465675 45.610803 929.362673 45.577318 930.236548 45.548714 C976.774085 44.025461 1023.311621 42.502207 1069.849158 40.978953 C1077.429680 40.730829 1087.478733 42.453014 1088.379738 49.983888 C1063.178526 50.989506 1037.968323 51.769666 1012.753158 52.324249 z"/><path class="selected"  fill="#000000" opacity="1.000000" stroke="none" 
 	d="
M1365.651912 39.052142 C1364.170294 45.225427 1370.572491 50.841281 1376.870529 51.640879 C1383.168567 52.440476 1389.397874 50.159775 1395.680809 49.249087 C1401.963745 48.338399 1409.400169 49.342038 1412.853470 54.669265 C1399.960717 59.786204 1385.887279 61.901126 1372.060030 60.799604 C1367.398374 60.428242 1365.760967 66.815114 1365.813342 71.491245 C1366.078586 95.172498 1366.343830 118.853750 1366.609074 142.535003 C1363.481575 144.459357 1359.139652 142.397192 1357.324544 139.205050 C1355.509437 136.012908 1355.526935 132.138447 1355.593388 128.466939 C1355.945379 109.019852 1356.297369 89.572766 1356.649359 70.125679 C1356.794790 62.090789 1346.082950 58.876289 1338.114818 59.920066 C1330.146685 60.963843 1320.929801 63.387707 1314.913977 58.059435 C1313.033299 56.393701 1311.870270 53.132566 1313.812076 51.538512 C1314.784575 50.740174 1316.157723 50.715759 1317.415859 50.729646 C1327.141856 50.837004 1336.867853 50.944362 1346.593851 51.051720 C1351.699969 51.108083 1355.507675 45.975344 1356.371178 40.942454 C1357.234681 35.909563 1356.087550 30.766871 1356.090259 25.660442 C1356.094654 17.359856 1359.277356 9.100204 1364.844021 2.942933 C1367.374055 0.144470 1373.002105 -1.564847 1374.024574 2.066547 C1374.289931 3.008990 1374.061803 4.011635 1373.833307 4.963685 C1371.106175 16.326504 1368.379043 27.689323 1365.651912 39.052142 z"/><path class="selected"  fill="#000000" opacity="1.000000" stroke="none" 
 	d="
M576.974223 94.782715 C564.108462 97.550047 551.242702 100.317380 538.376941 103.084712 C533.733019 104.083586 527.364909 104.162974 525.925722 99.636110 C536.363703 91.907543 549.081236 87.297971 562.047082 86.543635 C565.156187 86.362752 568.490931 86.331192 571.037298 84.538078 C575.259357 81.564965 575.287110 75.429892 574.880611 70.282083 C573.353667 50.945414 571.826728 31.608747 570.299789 12.272079 C570.051362 9.126077 569.854640 5.745113 571.481572 3.041017 C573.108504 0.336921 577.331334 -0.978967 579.456087 1.354372 C580.621256 2.633925 580.780938 4.508523 580.881556 6.236166 C582.269752 30.071947 583.657949 53.907728 585.046146 77.743509 C585.239761 81.067937 588.768677 83.284183 592.079901 83.637882 C595.391125 83.991582 598.708269 83.087717 602.038330 83.085763 C605.368391 83.083810 609.122003 84.370344 610.354651 87.463867 C611.587299 90.557391 608.060185 94.761057 605.206422 93.044857 C599.238457 89.455833 591.053712 93.850000 588.114180 100.163229 C585.174648 106.476457 585.967977 113.814910 586.822807 120.726275 C588.399631 133.475001 589.976454 146.223727 591.553277 158.972452 C591.987735 162.485071 586.690467 164.272400 583.815065 162.208592 C580.939662 160.144783 580.123019 156.288654 579.592411 152.789268 C576.685388 133.617339 575.806194 114.138576 576.974223 94.782715 z"/><path class="selected"  fill="#000000" opacity="1.000000" stroke="none" 
 	d="
M1495.432224 142.467174 C1494.469658 145.132750 1490.538633 145.529919 1488.227391 143.889801 C1485.916148 142.249682 1484.846512 139.407071 1483.901838 136.735102 C1480.037378 125.804642 1476.172919 114.874183 1472.308460 103.943724 C1469.935629 97.232274 1460.292990 95.831267 1454.194646 99.503336 C1448.096303 103.175406 1444.753616 109.993308 1441.735602 116.440437 C1438.085630 124.237573 1434.435657 132.034706 1430.785684 139.831839 C1429.056378 143.526012 1423.063851 142.889233 1420.612266 139.629304 C1418.160681 136.369375 1418.223155 131.929668 1418.392465 127.854285 C1419.178879 108.925014 1419.965291 89.995744 1420.751704 71.066473 C1421.461355 53.984886 1422.182876 36.806470 1425.755002 20.087494 C1426.590568 16.176709 1427.873050 11.890580 1431.323058 9.868242 C1434.773065 7.845903 1440.539080 10.484558 1439.622620 14.377180 C1433.005350 42.483754 1430.745874 71.611898 1432.949604 100.402718 C1442.265165 94.738788 1448.451508 83.321976 1459.232659 81.701315 C1466.989603 80.535263 1474.688231 85.235863 1479.323847 91.563652 C1483.959463 97.891442 1486.137282 105.637798 1488.227115 113.198384 C1490.538050 121.558870 1492.848984 129.919357 1495.159919 138.279843 C1495.538926 139.651015 1495.915396 141.129151 1495.432223 142.467174 z"/><path class="selected"  fill="#000000" opacity="1.000000" stroke="none" 
 	d="
M1277.331004 106.633323 C1275.506411 121.544811 1281.466880 137.194240 1292.748960 147.113729 C1295.291811 149.349467 1298.341577 152.891030 1296.256841 155.559079 C1294.508928 157.796059 1290.936292 156.736719 1288.505277 155.270620 C1281.477382 151.032228 1275.584843 144.930407 1271.594208 137.758928 C1270.841683 136.406581 1270.113814 134.967496 1268.869190 134.047687 C1267.624566 133.127879 1265.673249 132.941145 1264.639693 134.093056 C1259.040904 140.332998 1251.729395 145.020593 1243.722108 147.503858 C1238.378041 149.161191 1232.449214 149.811912 1227.274323 147.684400 C1219.872747 144.641449 1215.579196 136.244503 1215.813466 128.245253 C1216.047736 120.246003 1220.132005 112.759700 1225.503862 106.827918 C1231.853235 99.816731 1240.350721 94.480319 1249.714866 93.144630 C1259.079011 91.808941 1269.255727 94.878206 1275.409004 102.062109 C1276.516955 103.355632 1277.537862 104.942771 1277.331004 106.633323 M1234.018535 118.746257 C1230.181063 123.255336 1227.141647 130.311942 1231.125088 134.692602 C1233.472346 137.273921 1237.532422 137.697061 1240.827919 136.551412 C1244.123416 135.405762 1246.799981 132.978741 1249.230322 130.475491 C1254.193034 125.363899 1258.554207 119.668786 1262.195213 113.545065 C1263.715920 110.987430 1264.862742 107.151580 1262.391669 105.493917 C1261.435937 104.852786 1260.209694 104.804270 1259.059900 104.853740 C1249.246172 105.275975 1240.384840 111.265769 1234.018535 118.746257 z"/><path class="selected"  fill="#000000" opacity="1.000000" stroke="none" 
 	d="
M385.717786 107.638368 C387.243087 112.884608 383.200942 118.117538 378.812078 121.371374 C369.717081 128.114263 357.813154 130.935913 346.659251 128.992725 C344.018272 128.532624 340.759775 128.037493 339.137230 130.171459 C338.309836 131.259640 338.216649 132.730829 338.297639 134.095440 C338.840989 143.250399 345.810102 151.085442 354.096050 155.016287 C362.381997 158.947132 371.816120 159.611559 380.987183 159.619739 C390.158247 159.627918 399.416958 159.052037 408.430996 160.741887 C410.819531 161.189663 413.848462 163.151710 412.662304 165.272707 C412.118146 166.245727 410.903589 166.581076 409.812028 166.807723 C398.653771 169.124574 387.143183 169.498870 375.786193 168.553740 C363.622810 167.541502 351.163187 164.838171 341.354811 157.573995 C331.546436 150.309818 325.009859 137.624388 327.870134 125.758836 C330.038709 116.762730 336.946723 109.796521 343.563540 103.327334 C347.612841 99.368379 351.927433 95.255588 357.411686 93.843805 C365.137331 91.855033 373.150758 95.728441 379.600766 100.422926 C382.198923 102.313932 384.820648 104.552680 385.717786 107.638368 M374.084442 109.479124 C371.167631 105.483729 365.300107 104.651143 360.604654 106.207963 C355.909200 107.764783 352.107947 111.190744 348.455771 114.527297 C347.190529 115.683196 345.825152 117.492912 346.786328 118.911743 C347.544911 120.031520 349.195166 119.954090 350.524578 119.705067 C359.010350 118.115525 367.128000 114.592134 374.084442 109.479124 z"/><path class="selected"  fill="#000000" opacity="1.000000" stroke="none" 
 	d="
M172.635752 183.402749 C165.851976 187.181266 158.792024 190.876453 151.089951 191.863810 C140.208986 193.258680 128.748757 188.685883 121.816956 180.183460 C113.990618 170.583816 112.304289 156.863575 115.792998 144.979399 C119.281707 133.095223 127.429601 122.970030 137.160015 115.306886 C141.724925 111.711811 146.766726 108.547064 152.393400 107.096716 C165.031538 103.839071 178.108220 109.636811 189.552088 115.911576 C191.282836 116.860559 193.129151 117.960253 193.854429 119.796017 C194.579706 121.631781 193.344235 124.261579 191.379967 124.067398 C184.238820 123.361448 178.174340 118.503134 171.198895 116.818645 C157.374240 113.480148 143.642922 123.267123 135.121291 134.653450 C129.385584 142.317316 124.834827 151.474793 125.352757 161.033293 C125.870687 170.591793 132.819406 180.238032 142.343812 181.196605 C145.850023 181.549483 149.359658 180.752169 152.787443 179.934661 C163.508679 177.377706 174.894699 174.126547 181.949314 165.658057 C183.773235 163.468589 185.307128 160.931063 187.712237 159.402693 C190.117346 157.874323 193.825991 157.838169 195.355676 160.242442 C192.826507 171.104317 182.378788 177.975944 172.635752 183.402749 z"/><path class="selected"  fill="#000000" opacity="1.000000" stroke="none" 
 	d="
M854.489831 86.710852 C859.303476 89.621177 863.989565 94.211627 863.750879 99.831609 C863.465314 106.555348 856.539320 110.790333 850.334014 113.395018 C841.845249 116.958187 832.423290 119.845463 823.538550 117.433681 C819.226814 116.263250 816.080291 121.990441 816.677063 126.418177 C817.422903 131.951898 821.143895 136.762965 825.754283 139.912991 C830.364671 143.063018 835.810497 144.748783 841.247604 146.020085 C854.519467 149.123306 868.307796 150.005702 881.866958 148.619556 C884.074125 148.393919 886.509873 148.164496 888.314219 149.455556 C890.118565 150.746615 890.221496 154.215879 888.068402 154.751308 C870.222445 159.189212 851.104006 158.375808 833.699484 152.438154 C828.343731 150.611008 823.103842 148.284619 818.555057 144.918447 C809.296022 138.066616 803.300438 126.104677 805.744446 114.848384 C807.825646 105.263064 815.270897 97.898580 822.370214 91.130311 C825.752930 87.905334 829.275893 84.592301 833.682540 83.035151 C840.547740 80.609236 848.258922 82.943651 854.489831 86.710852 M840.382282 94.375090 C835.015216 96.673902 830.010597 99.816588 825.608640 103.652303 C824.871606 104.294529 824.086100 105.122177 824.215951 106.091099 C824.404532 107.498246 826.235755 107.901566 827.655252 107.876073 C833.796701 107.765772 839.901835 106.034671 845.187127 102.904937 C847.861497 101.321286 850.632529 98.314963 849.299891 95.507067 C847.873502 92.501637 843.440318 93.065278 840.382282 94.375090 z"/><path class="selected"  fill="#000000" opacity="1.000000" stroke="none" 
 	d="
M1723.920851 102.077035 C1713.938544 107.156041 1707.698801 118.758914 1708.965213 129.887209 C1709.241372 132.313897 1709.874546 134.776489 1711.355746 136.718428 C1713.569794 139.621172 1717.348258 140.919469 1720.986395 141.222600 C1727.872878 141.796385 1734.960000 139.203591 1739.850395 134.321286 C1744.740790 129.438980 1747.345313 122.356159 1746.782930 115.468736 C1746.031188 106.262263 1745.279446 97.055791 1744.527704 87.849319 C1744.349830 85.670924 1744.256360 83.223557 1745.711204 81.592462 C1747.853250 79.190915 1752.124420 80.287987 1754.040674 82.873283 C1755.956929 85.458579 1756.203309 88.872402 1756.463797 92.079883 C1757.317063 102.586449 1759.072037 113.165399 1757.614842 123.605350 C1756.157648 134.045301 1750.752497 144.668598 1741.167552 149.055488 C1736.707639 151.096726 1731.717442 151.637815 1726.817703 151.861494 C1721.114516 152.121852 1715.201782 151.947425 1710.012690 149.566783 C1703.942582 146.781951 1699.444213 141.113003 1697.343511 134.773558 C1695.242810 128.434113 1695.394121 121.491593 1696.970564 115.001883 C1698.292317 109.560648 1700.673197 104.250128 1704.627635 100.285725 C1708.582072 96.321322 1714.261767 93.858312 1719.810512 94.610308 C1721.693017 94.865434 1723.651168 95.568182 1724.745503 97.121031 C1725.839839 98.673881 1725.614006 101.215555 1723.920853 102.077034 z"/><path class="selected"  fill="#000000" opacity="1.000000" stroke="none" 
 	d="
M83.760996 134.797754 C90.082277 146.881152 93.483323 160.479446 93.594806 174.115966 C93.643549 180.078147 90.422227 188.128883 84.649893 186.635519 C79.573624 185.322234 79.495731 178.274414 80.019321 173.057225 C81.337888 159.918719 79.191908 146.447999 73.856110 134.369580 C73.030022 132.499600 72.005420 130.533393 70.171451 129.630173 C68.808217 128.958789 67.217687 128.991290 65.699571 129.058273 C54.449201 129.554663 43.247714 131.152798 32.307397 133.822391 C30.175747 134.342543 27.981716 134.938908 26.280858 136.325117 C24.244715 137.984584 23.195870 140.539869 22.291122 143.005867 C16.480777 158.842664 13.339685 175.655079 13.040043 192.521449 C12.966486 196.661842 6.690630 198.125623 3.546845 195.430280 C0.403059 192.734936 -0.122840 188.102872 0.021258 183.964334 C0.356224 174.344052 3.072913 164.985772 5.769960 155.745212 C15.539809 122.271985 25.309658 88.798758 35.079506 55.325531 C37.712724 46.303664 40.566573 36.893555 47.128489 30.165317 C49.653237 27.576574 53.425639 25.366106 56.740669 26.810584 C61.132291 28.724175 60.900846 35.232278 58.527338 39.393360 C56.153830 43.554442 52.351229 47.135694 51.662841 51.876398 C51.156018 55.366724 52.459757 58.840121 53.777560 62.111609 C60.658010 79.192546 68.575704 95.855593 77.472517 111.978425 C80.452707 117.379135 88.151691 117.083608 94.276499 116.351538 C100.401307 115.619467 108.365449 116.311557 110.236796 122.189249 C105.799597 125.775616 99.350085 124.242235 93.648959 124.461182 C87.947834 124.680129 81.116349 129.742399 83.760996 134.797754 M48.527971 76.837016 C49.172468 74.208505 45.086560 72.584242 42.876174 74.145856 C40.665788 75.707471 40.071992 78.667890 39.575895 81.328403 C37.435125 92.809146 33.898343 104.028902 29.068245 114.661892 C27.917505 117.195133 30.375255 120.152023 33.105558 120.687709 C35.835860 121.223395 38.590823 120.168189 41.243286 119.327982 C48.451516 117.044661 56.131200 116.261415 63.651970 117.042529 C65.856027 117.271446 66.159748 113.706541 64.788773 111.965650 C63.417798 110.224759 61.216440 108.702842 61.362203 106.491727 C62.094269 95.386818 45.877701 87.645855 48.527971 76.837016 z"/><path class="selected"  fill="#000000" opacity="1.000000" stroke="none" 
 	d="
M1590.388440 141.464350 C1589.659181 143.972999 1586.269656 144.337479 1583.683209 143.969466 C1576.778803 142.987071 1570.121094 140.314473 1564.453830 136.250234 C1559.221280 132.497746 1552.000216 134.219709 1545.873456 136.200508 C1539.746697 138.181307 1532.691016 140.184032 1527.201186 136.819138 C1523.335031 134.449446 1521.265536 129.754701 1521.315458 125.220376 C1521.365380 120.686051 1523.293344 116.334018 1525.950519 112.659509 C1533.440188 102.302327 1546.033365 97.152236 1558.057915 92.819043 C1563.173315 90.975646 1568.497683 89.162034 1573.916755 89.608230 C1578.777068 90.008419 1583.456370 92.304845 1586.746469 95.904573 C1587.531669 96.763667 1588.269217 97.764704 1588.366508 98.924495 C1588.538618 100.976222 1586.585738 102.683640 1584.569877 103.102575 C1582.554016 103.521510 1580.478174 103.029047 1578.436073 102.766326 C1568.804778 101.527234 1559.279833 105.446639 1550.720588 110.033197 C1547.924520 111.531498 1545.109757 113.160659 1543.065310 115.586177 C1541.020864 118.011695 1539.862087 121.410652 1540.860353 124.421692 C1544.799873 120.269707 1551.182506 119.228606 1556.794966 120.350697 C1562.407425 121.472787 1567.455335 124.431349 1572.383036 127.342801 C1577.032632 130.089939 1581.682228 132.837078 1586.331823 135.584216 C1588.548935 136.894160 1591.107281 138.991537 1590.388440 141.464350 z"/><path class="selected"  fill="#000000" opacity="1.000000" stroke="none" 
 	d="
M255.350141 144.353108 C256.098578 145.303824 257.745399 144.913593 258.451549 143.931060 C259.157699 142.948527 259.205195 141.657145 259.268535 140.448838 C260.367357 119.486435 275.399725 99.947480 295.379926 93.511538 C296.968153 92.999945 299.133725 92.782112 299.901766 94.263429 C300.500310 95.417835 299.764858 96.794624 299.001321 97.847201 C295.316865 102.926427 290.494137 107.053642 286.318603 111.737515 C275.354115 124.036842 269.000024 140.449367 269.261632 156.924348 C269.321847 160.716396 269.689491 164.678865 268.156610 168.147802 C266.623728 171.616739 262.316725 174.224159 258.982850 172.416250 C256.837547 171.252885 255.846423 168.761153 255.018100 166.465587 C252.973676 160.799797 250.929253 155.134007 248.884830 149.468217 C242.620498 132.107631 236.269942 113.518205 240.547277 95.564481 C241.053337 93.440344 241.912759 91.105324 243.911101 90.225163 C246.586809 89.046659 249.750413 91.403732 250.517181 94.225141 C251.283948 97.046550 250.377914 100.024368 249.444475 102.795104 C248.511036 105.565839 247.529910 108.499187 248.152970 111.355772 C250.552027 122.354884 252.951084 133.353996 255.350141 144.353108 z"/><path class="selected"  fill="#000000" opacity="1.000000" stroke="none" 
 	d="
M1637.297240 118.430756 C1636.165225 108.250461 1635.800227 97.984963 1636.206360 87.749977 C1636.508495 80.135858 1637.236986 72.539085 1638.372722 65.004086 C1640.443210 51.267498 1643.870223 37.735726 1648.587724 24.669511 C1650.140967 20.367445 1653.848528 15.182234 1658.040140 17.012733 C1661.961231 18.725090 1661.193639 24.433888 1659.870492 28.502844 C1651.897175 53.022478 1647.904163 78.831606 1648.095040 104.614345 C1648.187077 117.046125 1649.591645 130.364391 1657.572633 139.896517 C1658.549977 141.063811 1657.859982 143.010622 1656.537414 143.764670 C1655.214846 144.518718 1653.559793 144.358637 1652.096404 143.938797 C1642.047188 141.055717 1638.452637 128.821327 1637.297240 118.430756 z"/><path class="selected"  fill="#000000" opacity="1.000000" stroke="none" 
 	d="
M429.575187 113.456011 C429.880944 111.663911 430.214123 109.803817 431.269249 108.323338 C432.832719 106.129584 435.964281 105.213837 438.463370 106.219598 C440.962459 107.225359 442.586659 110.055067 442.194636 112.720272 C441.857910 115.009544 440.264101 116.897588 439.447452 119.062591 C438.630802 121.227593 439.052076 124.307640 441.273662 124.954719 C443.497807 120.172952 445.783938 115.298665 449.419955 111.478782 C453.055971 107.658900 458.347182 105.011353 463.548337 105.883192 C466.185743 106.325284 468.594239 107.618351 470.918960 108.940105 C488.586398 118.985189 504.640568 131.860741 518.282080 146.925641 C519.225876 147.967915 520.222059 149.214041 520.037320 150.607942 C519.793818 152.445239 517.507296 153.401840 515.709559 152.951176 C513.911822 152.500512 512.525881 151.112593 511.212396 149.805033 C499.829935 138.473932 486.664881 128.937102 472.350530 121.653309 C469.656774 120.282603 466.799844 118.962395 463.777582 118.995428 C457.451951 119.064566 452.784044 124.845047 449.798411 130.422177 C444.486202 140.345329 441.339153 151.754889 442.886872 162.903570 C443.324416 166.055331 439.182992 168.271279 436.196495 167.173152 C433.209999 166.075025 431.438118 163.025339 430.249577 160.073658 C424.365501 145.460852 426.925795 128.984603 429.575187 113.456011 z"/><path class="selected"  fill="#000000" opacity="1.000000" stroke="none" 
 	d="
M1172.739545 22.651113 C1175.366269 21.170679 1178.727914 22.862377 1180.697585 25.145304 C1182.667257 27.428232 1183.938689 30.310580 1186.223657 32.277884 C1189.383362 34.998320 1194.578317 36.259254 1195.255886 40.373304 C1193.112877 43.823782 1188.161513 44.572734 1184.360536 43.140661 C1180.559558 41.708588 1177.646555 38.642941 1174.882734 35.666440 C1173.148406 33.798652 1171.364773 31.838618 1170.623349 29.400009 C1169.881924 26.961400 1170.519098 23.902568 1172.739545 22.651113 z"/><path class="selected"  fill="#000000" opacity="1.000000" stroke="none" 
 	d="
M732.473385 124.510173 C732.451019 126.427315 732.954168 128.941681 734.860286 129.148198 C738.164353 125.133182 738.711264 119.585713 740.740699 114.798379 C743.746355 107.708179 749.890690 102.518644 755.822583 97.607683 C765.170043 89.869003 774.684552 82.026560 785.830476 77.227544 C788.554680 76.054604 791.705489 75.077005 794.415100 76.283277 C797.124710 77.489548 798.256471 81.887287 795.690064 83.374108 C782.388090 91.080463 769.266056 99.547268 758.991052 110.982071 C748.716049 122.416874 741.455509 137.236850 741.833144 152.605253 C741.938332 156.886016 736.384073 160.105401 732.721834 157.886394 C730.081453 156.286547 729.091230 152.999283 728.381407 149.994740 C724.769857 134.707746 722.920545 119.005167 722.881805 103.297398 C722.872804 99.647792 723.085004 95.662015 725.500210 92.925870 C727.915415 90.189726 733.320908 90.099228 734.565999 93.529892 C735.024982 94.794553 734.819889 96.190723 734.622486 97.521536 C733.297303 106.455393 732.578741 115.479181 732.473385 124.510173 z"/><path class="selected"  fill="#000000" opacity="1.000000" stroke="none" 
 	d="
M1169.183278 157.571162 C1167.328897 156.987277 1166.304099 155.039751 1165.600860 153.227265 C1159.314920 137.026258 1163.358956 118.866821 1167.468256 101.981936 C1168.216938 98.905639 1169.061338 95.656508 1171.331569 93.449660 C1173.601800 91.242811 1177.798350 90.710367 1179.738449 93.212395 C1181.231535 95.137934 1180.812295 97.870024 1180.352613 100.262868 C1177.320425 116.046725 1175.734255 132.108068 1175.620448 148.180134 C1175.604694 150.404955 1175.596374 152.722879 1174.605409 154.714878 C1173.614444 156.706878 1171.305442 158.239363 1169.183278 157.571162 z"/><path class="selected"  fill="#000000" opacity="1.000000" stroke="none" 
 	d="
M699.296531 87.645936 C700.459278 86.857525 701.886839 86.306764 703.260550 86.600854 C706.938461 87.388237 706.915908 92.820836 705.053230 96.088469 C703.190551 99.356102 700.289663 102.696971 701.194443 106.347775 C703.248777 114.637045 700.056285 123.235174 696.784506 131.123630 C694.403510 136.864354 691.903666 142.656393 688.005727 147.496963 C684.107788 152.337533 678.582557 156.188606 672.391731 156.735159 C668.110257 157.113148 663.835169 155.904246 659.871471 154.242021 C642.089472 146.784926 628.513661 127.814382 631.294172 108.733592 C631.699893 105.949393 632.615595 102.945804 634.999933 101.452047 C637.384270 99.958291 641.405436 101.291129 641.389970 104.104691 C641.331548 114.732218 644.422067 125.357718 650.171378 134.296014 C653.432593 139.366138 658.074359 144.196995 664.055520 144.950256 C668.923739 145.563353 673.810246 143.273240 677.373037 139.899526 C680.935829 136.525812 683.378095 132.159520 685.620902 127.795435 C688.664111 121.873915 691.478199 115.710857 692.448214 109.124159 C693.581915 101.425973 692.856225 92.012836 699.296529 87.645935 z"/><path class="selected"  fill="#000000" opacity="1.000000" stroke="none" 
 	d="
M1089.985521 111.221514 C1092.155730 112.720664 1094.931898 110.606965 1096.793258 108.738116 C1104.296607 101.204571 1113.436471 95.309391 1123.393968 91.580748 C1126.154146 90.547184 1129.316371 89.696315 1131.962202 90.994934 C1134.608034 92.293553 1135.561874 96.714418 1132.946931 98.074164 C1124.387480 102.525001 1115.922341 107.423486 1109.010763 114.154328 C1102.099185 120.885170 1096.801988 129.674658 1095.885465 139.278518 C1095.503151 143.284632 1095.850211 147.493297 1094.192053 151.160124 C1092.533894 154.826951 1087.753806 157.529198 1084.434240 155.254206 C1082.320021 153.805272 1081.676994 151.025948 1081.197968 148.508039 C1077.956495 131.469825 1074.704191 114.039278 1077.276484 96.887275 C1077.826590 93.219179 1083.196025 91.997293 1086.108393 94.294173 C1089.020762 96.591053 1089.663341 100.820788 1089.030643 104.475543 C1088.619037 106.853179 1088.000155 109.850052 1089.985518 111.221514 z"/><path class="selected"  fill="#000000" opacity="1.000000" stroke="none" 
 	d="
M204.667377 175.080661 C197.625104 146.968781 198.352671 117.572510 199.124245 88.602248 C199.787325 63.705610 200.529941 38.351588 208.654112 14.808434 C209.240673 13.108627 209.980556 11.281373 211.553953 10.410846 C214.766369 8.633486 218.649116 12.517091 218.571792 16.187602 C218.494468 19.858112 216.127862 23.010579 214.350493 26.222990 C209.421967 35.130764 208.716468 45.682910 208.119305 55.845692 C205.691316 97.166295 203.377118 139.516799 215.437616 179.112654 C216.339754 182.074465 211.937250 184.338743 209.217631 182.858932 C206.498011 181.379120 205.419743 178.084013 204.667377 175.080662 z"/></svg>