<?xml version="1.0" encoding="utf-8"?><!DOCTYPE svg PUBLIC "-//W3C//DTD SVG 1.1//EN" "http://www.w3.org/Graphics/SVG/1.1/DTD/svg11.dtd"><svg version="1.1" id="Contours" xmlns="http://www.w3.org/2000/svg" xmlns:xlink="http://www.w3.org/1999/xlink" x="0px" y="0px" width="1554.721313px" height="1554.721313px" viewBox="-0.000001 -0.000000 1554.721313 1607.074585" enable-background="new 0 0 1554.721313 1554.721313" xml:space="preserve" stroke="black" fill="none" stroke-linecap='round' stroke-linejoin='round'><path class="selected"  fill="#000000" opacity="1.000000" stroke="none" 
 	d="
M857.460350 683.810827 C858.318414 684.253114 859.176478 684.695400 860.034542 685.137687 C860.244593 686.282814 860.128910 687.485853 859.704498 688.569971 C857.838899 687.793330 856.723440 685.547566 857.231851 683.591765 z"/><path class="selected"  fill="#000000" opacity="1.000000" stroke="none" 
 	d="
M1277.511454 334.538325 C1276.032945 335.238767 1274.180548 333.799033 1274.102339 332.164870 C1275.717459 331.128721 1278.221640 332.838239 1277.844936 334.719807 z"/><path class="selected"  fill="#000000" opacity="1.000000" stroke="none" 
 	d="
M1157.525600 614.673172 C1159.520997 614.386072 1160.499994 618.035759 1158.538109 618.499486 C1157.161499 617.827440 1156.616415 615.866856 1157.448603 614.580717 z"/><path class="selected"  fill="#000000" opacity="1.000000" stroke="none" 
 	d="
M553.571628 1579.683597 C554.980300 1577.771876 558.645951 1578.703953 558.970370 1581.056354 C557.772951 1583.601386 553.005084 1582.466279 553.082932 1579.654704 z"/><path class="selected"  fill="#000000" opacity="1.000000" stroke="none" 
 	d="
M340.266881 1531.801970 C241.485667 1495.018997 161.052949 1417.649605 107.562632 1326.822840 C54.072314 1235.996075 25.780462 1132.230021 10.719903 1027.904114 C-13.411508 860.743577 -1.469375 679.066466 95.116395 540.516267 C128.622291 492.452787 171.074958 451.361606 214.634967 412.179104 C396.868496 248.258899 603.855814 111.907325 826.401119 9.182060 C850.284834 -1.842488 887.405870 -7.146568 894.958308 18.051312 C924.816536 117.670505 1011.061411 189.886276 1100.540063 242.886883 C1190.018715 295.887490 1287.875194 336.603125 1367.001394 404.090442 C1514.673132 530.040722 1576.746576 739.633787 1547.791709 931.550518 C1518.836842 1123.467249 1407.513806 1296.694420 1262.600209 1425.808575 C1228.623910 1456.080554 1192.624356 1484.316854 1153.311325 1507.235555 C1021.246871 1584.226456 862.480336 1596.099696 709.942625 1606.142893 C691.315692 1607.369304 671.998836 1608.498171 654.576672 1601.794820 C554.194838 1563.171908 441.061429 1569.334631 340.266886 1531.801950 M1216.416480 1358.261603 C1304.005694 1273.762535 1386.632120 1179.470834 1429.532296 1065.578174 C1446.540098 1020.425354 1456.940736 973.091785 1466.564062 925.811409 C1475.363722 882.577783 1483.597615 838.816125 1482.482274 794.710157 C1480.920903 732.966040 1460.503371 671.824834 1424.651009 621.531872 C1365.526205 623.967288 1308.139403 654.230488 1272.734843 701.645577 C1199.409715 799.845322 1075.518884 858.036702 953.124252 851.766309 C850.933005 846.530955 742.953032 800.741634 650.906813 845.440102 C559.558165 889.799832 444.185547 879.734965 361.898049 820.227582 C288.923023 767.454647 204.370388 730.781191 115.974504 713.561879 C109.521100 712.304770 102.254678 711.306978 96.866459 715.074448 C92.061975 718.433784 90.239615 724.578319 88.812780 730.264469 C50.869631 881.474175 67.660096 1043.491770 121.240098 1189.892728 C163.217016 1304.589644 234.219292 1417.263855 345.964202 1466.564152 C337.147415 1465.471601 328.330626 1464.379050 319.513838 1463.286500 C419.176997 1488.629336 521.299376 1504.291286 623.976733 1509.980304 C654.686154 1511.681813 689.805769 1510.715875 710.083052 1487.590231 C719.163189 1477.234602 737.103574 1480.147687 746.845698 1489.883134 C756.587823 1499.618582 760.256953 1513.708611 763.536283 1527.085229 C885.281756 1517.806649 1012.544370 1506.769028 1115.698981 1441.445384 C1152.551133 1418.108408 1185.023757 1388.546789 1216.416478 1358.261602 M834.191117 76.861708 C601.744368 184.522071 388.830492 334.189667 208.829879 516.458765 C328.250476 505.855673 448.452977 513.559987 568.095257 521.269043 C593.503810 522.906223 619.262402 524.610885 643.356679 532.841360 C734.464240 563.963219 833.969839 546.914731 929.297847 533.434058 C1067.395575 513.905141 1206.652517 502.576841 1346.090925 499.528683 C1266.107123 401.182297 1137.866443 358.763193 1032.712773 287.966817 C951.914038 233.567790 883.528088 160.847142 834.191116 76.861709 M638.538175 725.422672 C643.295915 721.420771 648.421949 717.883045 653.538987 714.352149 C676.867436 698.254882 700.195885 682.157615 723.524333 666.060348 C705.919613 666.257316 688.294600 660.823471 673.856981 650.747751 C661.147986 641.878403 646.343783 636.571505 631.638565 631.678608 C592.548779 618.672194 552.652620 607.855159 511.986045 601.266698 C501.286239 599.533204 490.541305 598.093556 479.797984 596.654146 C447.682737 592.351283 414.534633 588.107830 383.282108 596.662561 C379.337453 597.742327 374.600377 600.234483 375.065685 604.297695 C379.923924 646.720989 400.882060 686.439931 430.187200 717.497086 C435.822182 723.468957 441.798832 729.178300 448.575411 733.814486 C465.236934 745.213441 485.621324 749.457975 505.408936 753.457088 C524.243864 757.263660 543.245783 761.086963 562.460620 760.901097 C581.675457 760.715231 601.373741 756.212323 616.821666 744.784018 C624.622194 739.013224 631.112611 731.668575 638.538176 725.422673 M1169.533677 639.395461 C1174.454160 636.050571 1173.954994 628.828531 1173.483582 622.897492 C1173.012169 616.966454 1174.401535 609.302123 1180.226760 608.091255 C1179.705170 605.216161 1175.910035 604.135149 1173.124670 605.018307 C1170.339305 605.901465 1168.133492 608.017222 1165.540430 609.364163 C1151.793240 616.505008 1136.009313 600.065072 1120.751852 602.745887 C1108.091604 604.970358 1095.431357 607.194829 1082.771109 609.419300 C1070.779414 611.526303 1058.680654 613.641231 1046.513219 613.201068 C1042.015187 613.038349 1037.496206 612.527203 1033.028615 613.074375 C1026.582080 613.863921 1020.633661 616.799462 1014.615619 619.241666 C991.425140 628.652683 966.081354 631.023683 941.743023 636.855591 C910.199928 644.413892 880.096861 657.936762 853.496348 676.497675 C849.053474 679.597757 844.622118 686.480902 849.141786 689.467914 C884.721773 712.982409 917.183887 741.208394 945.413355 773.176565 C949.947807 778.311559 957.700548 778.757656 964.543682 778.439953 C981.313097 777.661396 997.880051 774.580502 1014.383802 771.507135 C1032.406275 768.150949 1050.428748 764.794762 1068.451222 761.438576 C1070.008779 761.148524 1071.864660 760.592813 1072.248909 759.055781 C1078.093925 735.675182 1109.146147 726.881662 1117.851074 704.408548 C1128.004342 678.196318 1146.286524 655.198617 1169.533677 639.395461 z"/></svg>